<svg width="144" height="17" viewBox="0 0 144 17" fill="none" xmlns="http://www.w3.org/2000/svg">
<path d="M0.832 15.424C1.36533 15.2747 1.74933 15.136 1.984 15.008C2.21867 14.8587 2.37867 14.6667 2.464 14.432C2.54933 14.1973 2.592 13.8347 2.592 13.344V4.672C2.592 3.92533 2.528 3.38133 2.4 3.04C2.29333 2.69867 2.02667 2.4 1.6 2.144L1.216 1.92L1.344 1.504C2.048 1.29067 2.92267 1.12 3.968 0.992C5.01333 0.842666 5.97333 0.768 6.848 0.768C9.55733 0.768 11.616 1.44 13.024 2.784C14.4533 4.10667 15.168 6.02667 15.168 8.544C15.168 10.8267 14.5067 12.64 13.184 13.984C11.8827 15.328 10.1013 16 7.84 16H1.056L0.832 15.424ZM7.552 15.36C10.432 15.36 11.872 13.088 11.872 8.544C11.872 6.45333 11.456 4.77867 10.624 3.52C9.81333 2.24 8.736 1.6 7.392 1.6C6.83733 1.6 6.41067 1.68533 6.112 1.856C5.81333 2.02667 5.664 2.272 5.664 2.592V12.384C5.664 13.3867 5.81333 14.1333 6.112 14.624C6.432 15.1147 6.912 15.36 7.552 15.36ZM20.6118 14.176C20.6118 14.816 20.8144 15.136 21.2198 15.136C21.6251 15.136 22.0198 14.976 22.4038 14.656L22.6598 14.976C21.8704 15.8507 20.9424 16.288 19.8758 16.288C19.1078 16.288 18.5531 16.096 18.2118 15.712C17.8704 15.3067 17.6998 14.656 17.6998 13.76V7.424C17.6998 7.12533 17.5611 6.976 17.2838 6.976H16.2918L16.1958 6.624C16.6224 6.26133 17.1558 5.96267 17.7958 5.728C18.4358 5.49333 19.0758 5.376 19.7158 5.376C19.9718 5.376 20.1851 5.44 20.3558 5.568C20.5264 5.696 20.6118 5.86667 20.6118 6.08V14.176ZM17.3798 2.304C17.3798 1.92 17.5931 1.49333 18.0198 1.024C18.4464 0.554666 18.8411 0.32 19.2038 0.32C19.5878 0.32 19.9931 0.554666 20.4198 1.024C20.8678 1.49333 21.0918 1.92 21.0918 2.304C21.0918 2.70933 20.8678 3.14667 20.4198 3.616C19.9931 4.064 19.5878 4.288 19.2038 4.288C18.8411 4.288 18.4464 4.064 18.0198 3.616C17.5931 3.14667 17.3798 2.70933 17.3798 2.304ZM33.409 6.24C33.8143 6.79467 34.0277 7.68 34.049 8.896H34.113C34.4117 7.872 34.9023 7.02933 35.585 6.368C36.2677 5.70667 36.993 5.376 37.761 5.376C38.6783 5.376 39.3397 5.68533 39.745 6.304C40.1717 6.90133 40.385 7.84 40.385 9.12V14.176C40.385 14.816 40.5877 15.136 40.993 15.136C41.3983 15.136 41.793 14.976 42.177 14.656L42.433 14.976C41.6437 15.8507 40.7157 16.288 39.649 16.288C38.8597 16.288 38.305 16.0853 37.985 15.68C37.665 15.2533 37.505 14.5173 37.505 13.472V8.864C37.505 7.62667 37.0997 7.008 36.289 7.008C35.6063 7.008 35.073 7.584 34.689 8.736C34.305 9.86667 34.113 11.1787 34.113 12.672C34.1343 13.3333 34.1877 13.856 34.273 14.24C34.3797 14.624 34.5503 14.9973 34.785 15.36L35.041 15.68L34.785 16H31.233V8.864C31.233 7.62667 30.8277 7.008 30.017 7.008C29.3343 7.008 28.801 7.584 28.417 8.736C28.033 9.86667 27.841 11.1787 27.841 12.672C27.841 13.3333 27.8837 13.856 27.969 14.24C28.0757 14.624 28.257 14.9973 28.513 15.36L28.769 15.68L28.513 16H23.873L23.681 15.456L24.129 15.36C24.4703 15.2747 24.6943 15.1467 24.801 14.976C24.9077 14.784 24.961 14.4213 24.961 13.888V7.648C24.961 7.328 24.8223 7.168 24.545 7.168H23.521L23.425 6.848C23.8517 6.48533 24.385 6.18667 25.025 5.952C25.665 5.71733 26.305 5.6 26.945 5.6C27.2223 5.6 27.4357 5.664 27.585 5.792C27.7557 5.89867 27.841 6.05867 27.841 6.272V8.896C28.1183 7.91467 28.5877 7.08267 29.249 6.4C29.9103 5.71733 30.657 5.376 31.489 5.376C32.3637 5.376 33.0037 5.664 33.409 6.24ZM49.473 15.232C50.0917 15.232 50.6357 15.1253 51.105 14.912C51.5743 14.6773 52.033 14.2933 52.481 13.76L52.865 14.048C52.3743 14.752 51.745 15.3067 50.977 15.712C50.2303 16.096 49.409 16.288 48.513 16.288C47.5317 16.288 46.6463 16.0533 45.857 15.584C45.089 15.1147 44.481 14.4747 44.033 13.664C43.585 12.832 43.361 11.8933 43.361 10.848C43.361 9.184 43.8623 7.86133 44.865 6.88C45.889 5.87733 47.2437 5.376 48.929 5.376C50.1237 5.376 51.0943 5.664 51.841 6.24C52.609 6.79467 52.993 7.52 52.993 8.416C52.993 9.44 52.5557 10.2613 51.681 10.88C50.8277 11.4773 49.6543 11.776 48.161 11.776C47.5637 11.776 47.0197 11.7333 46.529 11.648C46.6357 12.7573 46.9557 13.632 47.489 14.272C48.0223 14.912 48.6837 15.232 49.473 15.232ZM48.577 6.144C47.9157 6.144 47.393 6.54933 47.009 7.36C46.6463 8.14933 46.465 9.25867 46.465 10.688V11.2C46.6997 11.2 46.9877 11.1787 47.329 11.136C48.225 11.0293 48.9077 10.7413 49.377 10.272C49.8677 9.78133 50.113 9.14133 50.113 8.352C50.113 7.712 49.9637 7.18933 49.665 6.784C49.3877 6.35733 49.025 6.144 48.577 6.144ZM72.1193 13.12C72.3326 13.7173 72.5673 14.1973 72.8233 14.56C73.0793 14.9013 73.4739 15.2747 74.0073 15.68L73.7193 16H67.9273L67.7353 15.424L68.2153 15.296C68.5353 15.1893 68.7593 15.0613 68.8873 14.912C69.0366 14.7413 69.1113 14.5173 69.1113 14.24C69.1113 14.0693 68.9939 13.632 68.7593 12.928L68.1193 11.04H63.1593L62.9033 11.84C62.5833 12.8 62.4233 13.5253 62.4233 14.016C62.4233 14.4853 62.5086 14.912 62.6793 15.296L62.9033 15.68L62.6153 16H59.0953L58.8712 15.424L59.3513 15.296C59.8633 15.1467 60.2473 14.944 60.5033 14.688C60.7593 14.4107 61.0046 13.9307 61.2393 13.248L64.5033 3.84C64.6526 3.30667 64.7273 2.93333 64.7273 2.72C64.7273 2.25067 64.3859 1.92 63.7033 1.728L63.3513 1.632L63.5753 1.056H67.9273L72.1193 13.12ZM67.7993 10.144L65.6233 3.648L63.4793 10.144H67.7993ZM82.0135 13.088C81.7148 14.0267 81.1922 14.7947 80.4455 15.392C79.7202 15.9893 78.9415 16.288 78.1095 16.288C77.1708 16.288 76.4775 15.9893 76.0295 15.392C75.5815 14.7947 75.3575 13.8773 75.3575 12.64V7.424C75.3575 7.12533 75.2188 6.976 74.9415 6.976H73.9495L73.8535 6.624C74.2802 6.26133 74.8135 5.96267 75.4535 5.728C76.0935 5.49333 76.7228 5.376 77.3415 5.376C77.6188 5.376 77.8322 5.44 77.9815 5.568C78.1522 5.696 78.2375 5.86667 78.2375 6.08V12.48C78.2375 13.2053 78.3442 13.7707 78.5575 14.176C78.7708 14.56 79.0695 14.752 79.4535 14.752C80.2428 14.752 80.8722 14.272 81.3415 13.312C81.8322 12.3307 82.0775 11.0613 82.0775 9.504C82.0775 8.672 82.0135 8.032 81.8855 7.584C81.7788 7.11467 81.5762 6.70933 81.2775 6.368L80.9895 6.016L81.2455 5.728L84.9255 5.44V14.176C84.9255 14.816 85.1175 15.136 85.5015 15.136C85.9068 15.136 86.3015 14.976 86.6855 14.656L86.9415 14.976C86.1948 15.8507 85.2668 16.288 84.1575 16.288C83.3468 16.288 82.7815 16.0533 82.4615 15.584C82.1628 15.1147 82.0135 14.2827 82.0135 13.088ZM91.4443 16.288C90.5696 16.288 89.9403 16.096 89.5563 15.712C89.1723 15.3067 88.9803 14.656 88.9803 13.76V6.976H87.3803C87.3803 6.61333 87.4016 6.37867 87.4443 6.272C87.4869 6.16533 87.6149 6.08 87.8283 6.016C88.5323 5.824 89.0869 5.52533 89.4923 5.12C89.8976 4.71467 90.2283 4.128 90.4843 3.36C90.5483 3.12533 90.6549 2.98667 90.8043 2.944C90.9536 2.88 91.3163 2.848 91.8923 2.848V5.728H94.5163C94.5163 6.00533 94.4736 6.26133 94.3883 6.496C94.3029 6.70933 94.1856 6.86933 94.0363 6.976H91.8923V14.176C91.8923 14.816 92.1589 15.136 92.6923 15.136C92.9269 15.136 93.1829 15.0613 93.4603 14.912C93.7589 14.7627 94.0256 14.56 94.2603 14.304L94.5163 14.624C93.5989 15.7333 92.5749 16.288 91.4443 16.288ZM95.486 10.848C95.486 9.16267 95.966 7.82933 96.926 6.848C97.9073 5.86667 99.23 5.376 100.894 5.376C102.558 5.376 103.881 5.87733 104.862 6.88C105.843 7.86133 106.334 9.184 106.334 10.848C106.334 12.512 105.843 13.8347 104.862 14.816C103.881 15.7973 102.558 16.288 100.894 16.288C99.23 16.288 97.9073 15.7973 96.926 14.816C95.966 13.8347 95.486 12.512 95.486 10.848ZM103.102 10.912C103.102 9.48267 102.899 8.32 102.494 7.424C102.089 6.50667 101.577 6.048 100.958 6.048C100.275 6.048 99.7207 6.496 99.294 7.392C98.8673 8.26667 98.654 9.41867 98.654 10.848C98.654 12.2987 98.846 13.4507 99.23 14.304C99.6353 15.1573 100.169 15.584 100.83 15.584C101.491 15.584 102.035 15.1573 102.462 14.304C102.889 13.4293 103.102 12.2987 103.102 10.912ZM111.351 16.288C110.476 16.288 109.847 16.096 109.463 15.712C109.079 15.3067 108.887 14.656 108.887 13.76V6.976H107.287C107.287 6.61333 107.308 6.37867 107.351 6.272C107.393 6.16533 107.521 6.08 107.735 6.016C108.439 5.824 108.993 5.52533 109.399 5.12C109.804 4.71467 110.135 4.128 110.391 3.36C110.455 3.12533 110.561 2.98667 110.711 2.944C110.86 2.88 111.223 2.848 111.799 2.848V5.728H114.423C114.423 6.00533 114.38 6.26133 114.295 6.496C114.209 6.70933 114.092 6.86933 113.943 6.976H111.799V14.176C111.799 14.816 112.065 15.136 112.599 15.136C112.833 15.136 113.089 15.0613 113.367 14.912C113.665 14.7627 113.932 14.56 114.167 14.304L114.423 14.624C113.505 15.7333 112.481 16.288 111.351 16.288ZM121.504 15.232C122.123 15.232 122.667 15.1253 123.136 14.912C123.606 14.6773 124.064 14.2933 124.512 13.76L124.896 14.048C124.406 14.752 123.776 15.3067 123.008 15.712C122.262 16.096 121.44 16.288 120.544 16.288C119.563 16.288 118.678 16.0533 117.888 15.584C117.12 15.1147 116.512 14.4747 116.064 13.664C115.616 12.832 115.392 11.8933 115.392 10.848C115.392 9.184 115.894 7.86133 116.896 6.88C117.92 5.87733 119.275 5.376 120.96 5.376C122.155 5.376 123.126 5.664 123.872 6.24C124.64 6.79467 125.024 7.52 125.024 8.416C125.024 9.44 124.587 10.2613 123.712 10.88C122.859 11.4773 121.686 11.776 120.192 11.776C119.595 11.776 119.051 11.7333 118.56 11.648C118.667 12.7573 118.987 13.632 119.52 14.272C120.054 14.912 120.715 15.232 121.504 15.232ZM120.608 6.144C119.947 6.144 119.424 6.54933 119.04 7.36C118.678 8.14933 118.496 9.25867 118.496 10.688V11.2C118.731 11.2 119.019 11.1787 119.36 11.136C120.256 11.0293 120.939 10.7413 121.408 10.272C121.899 9.78133 122.144 9.14133 122.144 8.352C122.144 7.712 121.995 7.18933 121.696 6.784C121.419 6.35733 121.056 6.144 120.608 6.144ZM129.592 7.552C129.592 8.08533 129.794 8.52267 130.2 8.864C130.626 9.184 131.266 9.54667 132.12 9.952C132.824 10.2933 133.368 10.592 133.752 10.848C134.136 11.0827 134.466 11.4027 134.744 11.808C135.042 12.2133 135.192 12.6933 135.192 13.248C135.192 14.1653 134.754 14.9013 133.88 15.456C133.026 16.0107 131.874 16.288 130.424 16.288C129.336 16.288 128.44 16.096 127.736 15.712C127.032 15.3067 126.68 14.784 126.68 14.144C126.68 13.7173 126.84 13.3653 127.16 13.088C127.48 12.7893 127.874 12.64 128.344 12.64C128.706 12.64 129.069 12.7147 129.432 12.864C129.069 13.1413 128.888 13.5893 128.888 14.208C128.888 14.6347 129.037 14.9653 129.336 15.2C129.634 15.4347 129.997 15.552 130.424 15.552C130.914 15.552 131.33 15.424 131.672 15.168C132.034 14.912 132.216 14.5493 132.216 14.08C132.216 13.632 132.034 13.28 131.672 13.024C131.33 12.7467 130.786 12.4267 130.04 12.064C129.357 11.744 128.802 11.456 128.376 11.2C127.97 10.9227 127.618 10.56 127.32 10.112C127.021 9.664 126.872 9.12 126.872 8.48C126.872 7.52 127.277 6.76267 128.088 6.208C128.898 5.65333 129.922 5.376 131.16 5.376C132.248 5.376 133.133 5.57867 133.816 5.984C134.52 6.38933 134.872 6.912 134.872 7.552C134.872 8.04267 134.722 8.40533 134.424 8.64C134.125 8.87467 133.741 8.992 133.272 8.992C132.824 8.992 132.429 8.896 132.088 8.704C132.472 8.34133 132.664 7.88267 132.664 7.328C132.664 6.96533 132.525 6.67733 132.248 6.464C131.97 6.22933 131.608 6.112 131.16 6.112C130.669 6.112 130.285 6.25067 130.008 6.528C129.73 6.80533 129.592 7.14667 129.592 7.552ZM140.444 16.288C139.57 16.288 138.94 16.096 138.556 15.712C138.172 15.3067 137.98 14.656 137.98 13.76V6.976H136.38C136.38 6.61333 136.402 6.37867 136.444 6.272C136.487 6.16533 136.615 6.08 136.828 6.016C137.532 5.824 138.087 5.52533 138.492 5.12C138.898 4.71467 139.228 4.128 139.484 3.36C139.548 3.12533 139.655 2.98667 139.804 2.944C139.954 2.88 140.316 2.848 140.892 2.848V5.728H143.516C143.516 6.00533 143.474 6.26133 143.388 6.496C143.303 6.70933 143.186 6.86933 143.036 6.976H140.892V14.176C140.892 14.816 141.159 15.136 141.692 15.136C141.927 15.136 142.183 15.0613 142.46 14.912C142.759 14.7627 143.026 14.56 143.26 14.304L143.516 14.624C142.599 15.7333 141.575 16.288 140.444 16.288Z" fill="#080808"/>
</svg>
